:FULLY-SPECIFIED
:FORCE-ALL-JOINTS-BE-3DOF
:DEGREES
1053
root 1.20569 15.16 32.5537 4.88333 -3.34977 3.4302
lfemur 8.86362 0.413482 5.72175
ltibia -0.149615 0 0
lfoot -30.3274 -11.1781 0.00032031
ltoes -34.2771 0 0
rfemur -31.0072 -15.7553 -6.28836
rtibia 50.0066 -0 0
rfoot -21.8759 5.489 -0.000213565
rtoes -40.9258 0 0
lowerback -1.83683 -0.0541745 -0.22173
upperback -0.470373 -0.033877 -6.03514
thorax 0.543783 -0.0180968 -6.13152
lowerneck -7.06005 0.708796 6.49576
upperneck 1.32714 0.256463 3.7047
head 1.6159 0.257441 0.0742571
lclavicle 6.95746e-16 4.29375e-14 0
lhumerus -58.7273 -46.9724 115.417
lradius 55.8341 -0 0
lwrist 25.6634 0 0
lhand 37.4419 25.2802 9.073e-06
lfingers 7.12502 -0 0
lthumb 60.2428 38.8029 -9.65041e-06
rclavicle 6.95746e-16 4.29375e-14 0
rhumerus 2.10635 -23.6008 0.655459
rradius 27.4566 -0 0
rwrist -9.6678 0 0
rhand -30.5394 -42.0566 0.000146341
rfingers 7.12502 -0 0
rthumb -3.83834 -72.0016 0.000141073
1054
root 1.2073 15.1604 32.5579 4.8856 -3.34532 3.4196
lfemur 8.86795 0.411514 5.72262
ltibia -0.131693 0 0
lfoot -30.3432 -11.1647 0.000277457
ltoes -34.2914 0 0
rfemur -30.9771 -15.7083 -6.29173
rtibia 49.991 -0 0
rfoot -21.8654 5.44367 -0.000151667
rtoes -40.9184 0 0
lowerback -1.84974 -0.0539851 -0.232101
upperback -0.47065 -0.0329738 -6.03129
thorax 0.550859 -0.0175583 -6.12149
lowerneck -7.06728 0.700702 6.4933
upperneck 1.33867 0.244331 3.71442
head 1.62075 0.2521 0.0773379
lclavicle 6.95746e-16 4.29375e-14 0
lhumerus -58.7216 -46.971 115.423
lradius 55.8313 -0 0
lwrist 25.6477 0 0
lhand 37.4509 25.2822 7.64295e-06
lfingers 7.12502 -0 0
lthumb 60.2505 38.7966 -6.63355e-06
rclavicle 6.95746e-16 4.29375e-14 0
rhumerus 2.07524 -23.5645 0.666863
rradius 27.4625 -0 0
rwrist -9.65723 0 0
rhand -30.5315 -42.0213 0.000110284
rfingers 7.12502 -0 0
rthumb -3.83077 -71.9663 0.000106398
1055
root 1.20896 15.1608 32.562 4.88812 -3.34262 3.40928
lfemur 8.86676 0.411473 5.72094
ltibia -0.101821 0 0
lfoot -30.3649 -11.1501 0.000210241
ltoes -34.3038 0 0
rfemur -30.9486 -15.6649 -6.29505
rtibia 49.975 -0 0
rfoot -21.856 5.40408 -9.16585e-05
rtoes -40.9108 0 0
lowerback -1.86228 -0.054006 -0.242499
upperback -0.471249 -0.0323867 -6.02705
thorax 0.557359 -0.0171923 -6.11103
lowerneck -7.07384 0.693909 6.49041
upperneck 1.35022 0.234068 3.72292
head 1.62552 0.247654 0.0801718
lclavicle 6.95746e-16 4.29375e-14 0
lhumerus -58.7156 -46.9686 115.428
lradius 55.8279 -0 0
lwrist 25.6337 0 0
lhand 37.4592 25.2837 5.67817e-06
lfingers 7.12502 -0 0
lthumb 60.2576 38.7905 -3.76391e-06
rclavicle 6.95746e-16 4.29375e-14 0
rhumerus 2.04882 -23.5299 0.675631
rradius 27.4681 -0 0
rwrist -9.64534 0 0
rhand -30.5259 -41.989 7.19076e-05
rfingers 7.12502 -0 0
rthumb -3.82536 -71.9341 6.94409e-05
1056
root 1.21068 15.1612 32.5661 4.89093 -3.34196 3.39937
lfemur 8.85931 0.413665 5.71627
ltibia -0.0584434 0 0
lfoot -30.3933 -11.1346 0.000117795
ltoes -34.3138 0 0
rfemur -30.9218 -15.626 -6.29839
rtibia 49.9588 -0 0
rfoot -21.8476 5.3718 -3.91646e-05
rtoes -40.9026 0 0
lowerback -1.87438 -0.0542471 -0.252975
upperback -0.472197 -0.0321326 -6.0224
thorax 0.563224 -0.0170084 -6.10012
lowerneck -7.07951 0.688634 6.4871
upperneck 1.36153 0.225999 3.72996
head 1.63008 0.244246 0.082695
lclavicle 6.95746e-16 4.29375e-14 0
lhumerus -58.7094 -46.9651 115.434
lradius 55.8239 -0 0
lwrist 25.6221 0 0
lhand 37.4668 25.2846 3.1464e-06
lfingers 7.12502 -0 0
lthumb 60.2641 38.7846 -1.4138e-06
rclavicle 6.95746e-16 4.29375e-14 0
rhumerus 2.02788 -23.4977 0.68141
rradius 27.4733 -0 0
rwrist -9.63186 0 0
rhand -30.5229 -41.9603 3.41675e-05
rfingers 7.12502 -0 0
rthumb -3.82246 -71.9055 3.30358e-05
1057
root 1.21248 15.1616 32.5701 4.89405 -3.34364 363.39
lfemur 8.84486 0.418396 5.70819
ltibia 4.13472e-14 0 0
lfoot -30.4291 -11.118 0
ltoes -34.3209 0 0
rfemur -30.8972 -15.5928 -6.30183
rtibia 49.9423 0 0
rfoot -21.8406 5.34837 0
rtoes -40.8932 0 0
lowerback -1.88599 -0.0547184 -0.263582
upperback -0.473519 -0.0322281 -6.01737
thorax 0.568394 -0.017016 -6.08872
lowerneck -7.08404 0.685087 6.48338
upperneck 1.37235 0.220448 3.73534
head 1.63432 0.242022 0.0848435
lclavicle 6.16232e-15 3.18055e-14 0
lhumerus -58.703 -46.9605 115.44
lradius 55.8193 0 0
lwrist 25.6134 0 0
lhand 37.4734 25.2851 0
lfingers 7.12502 0 0
lthumb 60.2697 38.779 0
rclavicle 6.16232e-15 3.18055e-14 0
rhumerus 2.01322 -23.4684 0.68385
rradius 27.4779 0 0
rwrist -9.61654 0 0
rhand -30.5229 -41.9358 0
rfingers 7.12502 0 0
rthumb -3.82243 -791.881 0
1058
root 1.21444 15.162 32.5743 4.89762 -3.34729 3.38041
lfemur 8.8237 0.425457 5.6969
ltibia 0.0745478 -0 0
lfoot -30.4733 -11.0993 -0.000139378
ltoes -34.3263 0 0
rfemur -30.8727 -15.5616 -6.30545
rtibia 49.9245 -0 0
rfoot -21.8342 5.32987 3.14663e-05
rtoes -40.8829 0 0
lowerback -1.89788 -0.055436 -0.27485
upperback -0.475257 -0.0326586 -6.01163
thorax 0.57326 -0.0172037 -6.0762
lowerneck -7.08809 0.682726 6.479
upperneck 1.38376 0.216576 3.73972
head 1.63869 0.240623 0.0868486
lclavicle 6.16232e-15 3.18055e-14 0
lhumerus -58.6959 -46.9546 115.447
lradius 55.8138 -0 0
lwrist 25.6062 0 0
lhand 37.4797 25.2851 -3.56721e-06
lfingers 7.12502 -0 0
lthumb 60.2751 38.7733 8.99551e-07
rclavicle 6.16232e-15 3.18055e-14 0
rhumerus 2.0027 -23.4393 0.683654
rradius 27.4824 -0 0
rwrist -9.5989 0 0
rhand -30.5253 -41.9131 -3.18539e-05
rfingers 7.12502 -0 0
rthumb -3.82471 -71.8583 -3.08693e-05
1059
root 1.2166 15.1624 32.579 4.9017 -3.35229 3.36989
lfemur 8.79687 0.43434 5.68301
ltibia 0.164161 -0 0
lfoot -30.5256 -11.0777 -0.000289746
ltoes -34.3316 0 0
rfemur -30.8466 -15.5287 -6.30924
rtibia 49.9046 -0 0
rfoot -21.828 5.31164 6.42016e-05
rtoes -40.8724 0 0
lowerback -1.91068 -0.0564006 -0.287107
upperback -0.477414 -0.0333939 -6.00495
thorax 0.578175 -0.0175525 -6.06213
lowerneck -7.09241 0.680905 6.47375
upperneck 1.39687 0.213395 3.74387
head 1.64367 0.239621 0.0889537
lclavicle 6.16232e-15 3.18055e-14 0
lhumerus -58.6878 -46.9471 115.454
lradius 55.8073 -0 0
lwrist 25.5986 0 0
lhand 37.4862 25.2846 -7.21261e-06
lfingers 7.12502 -0 0
lthumb 60.2806 38.7668 2.08105e-06
rclavicle 6.16232e-15 3.18055e-14 0
rhumerus 1.99383 -23.4079 0.68175
rradius 27.4874 -0 0
rwrist -9.57887 0 0
rhand -30.5292 -41.8899 -6.33601e-05
rfingers 7.12502 -0 0
rthumb -3.82849 -71.835 -6.14451e-05
1060
root 1.21894 15.1629 32.5839 4.9062 -3.35858 3.35865
lfemur 8.76482 0.444898 5.66677
ltibia 0.267281 -0 0
lfoot -30.5851 -11.0536 -0.000440539
ltoes -34.3365 0 0
rfemur -30.8192 -15.4948 -6.3131
rtibia 49.883 -0 0
rfoot -21.8219 5.29412 9.72585e-05
rtoes -40.8619 0 0
lowerback -1.92412 -0.0575987 -0.300101
upperback -0.479953 -0.0344274 -5.99746
thorax 0.583026 -0.0180598 -6.04678
lowerneck -7.0969 0.679685 6.46772
upperneck 1.41141 0.211003 3.74767
head 1.64917 0.239053 0.0911136
lclavicle 6.16232e-15 3.18055e-14 0
lhumerus -58.6788 -46.9381 115.463
lradius 55.7998 -0 0
lwrist 25.5909 0 0
lhand 37.4929 25.2837 -1.07715e-05
lfingers 7.12502 -0 0
lthumb 60.2863 38.7598 3.62959e-06
rclavicle 6.16232e-15 3.18055e-14 0
rhumerus 1.98687 -23.3748 0.678127
rradius 27.4928 -0 0
rwrist -9.55685 0 0
rhand -30.5346 -41.8666 -9.28547e-05
rfingers 7.12502 -0 0
rthumb -3.83372 -71.8116 -9.01127e-05
